<svg xmlns="http://www.w3.org/2000/svg" width="3.9in" height=".65in" viewBox="0 0 280.778 46.778"><g id="Layer_1"><path d="m66.761,12.665c0-.958-2.813-2.503-5.161-2.503-1.298,0-1.917.525-1.917,1.206,0,.927,1.391,1.298,3.554,1.824,2.72.649,6.429,2.225,6.429,6.614,0,3.956-3.4,6.552-8.005,6.552-4.791,0-7.387-2.813-8.747-2.813h-.123l3.307-5.007c-.031.866,2.998,2.782,5.625,2.782,1.391,0,2.102-.556,2.102-1.267,0-1.082-1.762-1.607-3.833-2.102-3.122-.742-6.151-2.287-6.151-6.367,0-4.049,3.555-6.491,7.758-6.491,4.482,0,6.831,2.411,8.314,2.411h.123l-3.276,5.161Z" style="fill:#006595;"></path><path d="m89.51,18.321h-7.449v4.234c0,1.978,0,3.122.495,3.524h-6.738c.495-.402.495-1.545.495-3.524v-13.599c0-1.978,0-3.122-.495-3.523h6.738c-.495.402-.495,1.545-.495,3.523v4.08h7.449v-4.08c0-1.978,0-3.122-.495-3.523h6.738c-.495.402-.495,1.545-.495,3.523v13.599c0,1.978,0,3.122.495,3.524h-6.738c.495-.402.495-1.545.495-3.524v-4.234Z" style="fill:#006595;"></path><path d="m101.873,15.756c0-6.058,4.976-10.632,11.158-10.632s11.158,4.605,11.158,10.663-4.976,10.602-11.158,10.602-11.158-4.575-11.158-10.632Zm16.319.031c0-3.122-2.287-5.347-5.223-5.347-2.906,0-5.162,2.195-5.162,5.285,0,3.153,2.225,5.409,5.162,5.409,2.967,0,5.223-2.225,5.223-5.347Z" style="fill:#006595;"></path><path d="m130.803,8.956c0-1.978,0-3.122-.495-3.523h9.396c5.193,0,8.87,2.658,8.87,7.232,0,2.874-1.484,5.007-3.864,6.182l2.38,3.554c1.484,2.256,2.473,3.462,3.091,3.678h-8.314c.093-.093.155-.247.155-.402,0-.463-.247-1.051-1.082-2.473l-1.916-3.307h-2.473v2.596c0,1.978,0,3.184.495,3.585h-6.738c.495-.402.495-1.545.495-3.524v-13.599Zm8.901,1.484h-3.153v4.451h3.183c1.762,0,2.967-.834,2.967-2.225,0-1.36-1.236-2.225-2.998-2.225Z" style="fill:#006595;"></path><path d="m161.556,10.656v2.349h5.44c1.453,0,1.978-.093,2.195-.371v5.965c-.216-.278-.742-.371-2.195-.371h-5.44v2.627h7.82c1.453,0,1.978-.093,2.195-.371v5.965c-.216-.278-.742-.371-2.195-.371h-14.063c.495-.402.495-1.545.495-3.524v-13.599c0-1.978,0-3.122-.495-3.523h13.568c1.453,0,1.978-.062,2.195-.34v5.934c-.216-.278-.742-.371-2.195-.371h-7.325Z" style="fill:#006595;"></path><path d="m178.525,8.956c0-1.978,0-3.122-.495-3.523h6.738c-.495.402-.495,1.545-.495,3.523v11.9h6.49c1.453,0,1.978-.062,2.195-.34v5.934c-.216-.278-.742-.371-2.195-.371h-12.734c.495-.402.495-1.545.495-3.524v-13.599Z" style="fill:#006595;"></path><path d="m199.388,8.956c0-1.978,0-3.122-.495-3.523h6.738c-.495.402-.495,1.545-.495,3.523v13.599c0,1.978,0,3.122.495,3.524h-6.738c.495-.402.495-1.545.495-3.524v-13.599Z" style="fill:#006595;"></path><path d="m213.296,8.956c0-1.978,0-3.122-.495-3.523h7.325c-.155.123-.247.34-.34.587l7.572,11.188v-8.252c0-1.978,0-3.122-.495-3.523h6.738c-.495.402-.495,1.545-.495,3.523v13.599c0,1.978,0,3.122.495,3.524h-7.171c.185-.155.309-.433.371-.865l-7.758-11.467v8.809c0,1.978,0,3.122.495,3.524h-6.738c.495-.402.495-1.545.495-3.524v-13.599Z" style="fill:#006595;"></path><path d="m247.017,10.656v2.349h5.44c1.452,0,1.978-.093,2.194-.371v5.965c-.216-.278-.742-.371-2.194-.371h-5.44v2.627h7.819c1.453,0,1.978-.093,2.195-.371v5.965c-.216-.278-.742-.371-2.195-.371h-14.063c.495-.402.495-1.545.495-3.524v-13.599c0-1.978,0-3.122-.495-3.523h13.568c1.453,0,1.978-.062,2.195-.34v5.934c-.216-.278-.742-.371-2.195-.371h-7.325Z" style="fill:#006595;"></path><path d="m275.73,12.665c0-.958-2.813-2.503-5.161-2.503-1.298,0-1.917.525-1.917,1.206,0,.927,1.391,1.298,3.555,1.824,2.72.649,6.429,2.225,6.429,6.614,0,3.956-3.4,6.552-8.005,6.552-4.791,0-7.387-2.813-8.747-2.813h-.123l3.307-5.007c-.031.866,2.998,2.782,5.625,2.782,1.391,0,2.102-.556,2.102-1.267,0-1.082-1.762-1.607-3.833-2.102-3.122-.742-6.15-2.287-6.15-6.367,0-4.049,3.554-6.491,7.758-6.491,4.482,0,6.83,2.411,8.314,2.411h.124l-3.276,5.161Z" style="fill:#006595;"></path><path d="m25.563,6.999c-8.986-1.321-17.341,4.892-18.663,13.877-1.321,8.986,4.892,17.341,13.877,18.663,8.986,1.321,17.341-4.892,18.663-13.877,1.322-8.986-4.892-17.341-13.877-18.663Zm12.02,20.852l-3.822.053,2.555,2.844-3.75-.743,1.908,3.312-3.513-1.506,1.177,3.637-3.123-2.204.395,3.802-2.597-2.805-.404,3.801-1.957-3.284-1.185,3.634-1.231-3.619-1.915,3.308-.452-3.796-2.561,2.838.347-3.807-3.095,2.243,1.131-3.651-3.494,1.551,1.865-3.337-3.74.791,2.518-2.876-3.822-.004,3.061-2.289-3.738-.799,3.47-1.603-3.49-1.559,3.728-.846-3.09-2.25,3.822-.053-2.555-2.844,3.75.743-1.908-3.312,3.513,1.506-1.177-3.637,3.123,2.204-.395-3.802,2.597,2.805.404-3.801,1.957,3.284,1.185-3.634,1.231,3.619,1.915-3.308.452,3.796,2.561-2.838-.347,3.807,3.095-2.243-1.131,3.651,3.494-1.551-1.865,3.337,3.74-.791-2.518,2.876,3.823.004-3.061,2.289,3.738.799-3.47,1.603,3.49,1.559-3.728.846,3.09,2.25Z" style="fill:#006595;"></path><path d="m19.893,7.247c1.099-.224,2.237-.339,3.403-.33l.042-5.423c-1.553-.012-3.068.142-4.531.44l1.087,5.313Zm-12.236,10.849l-5.145-1.715c-.474,1.422-.809,2.909-.98,4.446l5.389.608c.129-1.154.38-2.27.736-3.339Zm3.447-5.861l-4.002-3.659c-1.024,1.119-1.929,2.347-2.703,3.662l4.675,2.747c.582-.988,1.261-1.91,2.03-2.75Zm33.74,8.924l-5.397.525c.054.562.08,1.133.076,1.71-.004.577-.04,1.147-.102,1.709l5.389.608c.083-.748.13-1.506.136-2.275.006-.769-.029-1.528-.101-2.277Zm-6.082-2.824l5.17-1.636c-.463-1.463-1.077-2.859-1.823-4.171l-4.716,2.675c.56.985,1.021,2.033,1.369,3.132Zm-12.068-11.036c1.13.248,2.214.615,3.243,1.083l2.244-4.937c-1.37-.623-2.814-1.112-4.318-1.442l-1.168,5.296Zm8.712,5.122l4.057-3.597c-1.008-1.137-2.136-2.165-3.36-3.07l-3.22,4.362c.919.68,1.766,1.452,2.523,2.306ZM10.509,5.557l3.153,4.411c.924-.662,1.919-1.228,2.972-1.688l-2.168-4.971c-1.402.612-2.728,1.367-3.958,2.248Zm22.17,31.012l3.153,4.411c1.238-.887,2.381-1.897,3.407-3.019l-4.002-3.659c-.77.842-1.629,1.601-2.558,2.267Zm-6.231,2.721l1.087,5.313c1.509-.307,2.961-.773,4.34-1.376l-2.168-4.971c-1.036.452-2.125.802-3.259,1.033Zm10.82-7.738l4.675,2.747c.766-1.301,1.401-2.687,1.887-4.143l-5.145-1.715c-.364,1.094-.842,2.134-1.417,3.111Zm-30.373-6.699l-5.397.525c.148,1.539.46,3.031.912,4.46l5.17-1.636c-.34-1.074-.574-2.193-.685-3.349Zm2.054,6.482l-4.716,2.675c.754,1.327,1.64,2.569,2.646,3.703l4.057-3.597c-.756-.852-1.421-1.785-1.987-2.781Zm9.531,13.199c1.458.32,2.971.497,4.524.509l.042-5.423c-1.166-.009-2.302-.142-3.397-.382l-1.168,5.296Zm-8.241-3.75c1.217.9,2.53,1.674,3.923,2.308l2.244-4.937c-1.046-.476-2.033-1.058-2.946-1.734l-3.22,4.362Z" style="fill:#88cbdf;"></path><path d="m34.493,25.6l3.728-.846-3.49-1.559,3.47-1.603-3.738-.799,3.061-2.289-3.823-.004,2.518-2.876-3.74.791,1.865-3.337-3.494,1.551,1.131-3.651-3.095,2.243.347-3.807-2.561,2.838-.452-3.796-1.915,3.308-1.231-3.619-1.185,3.634-1.957-3.284-.404,3.801-2.597-2.805.395,3.802-3.123-2.204,1.177,3.637-3.513-1.506,1.908,3.312-3.75-.743,2.555,2.844-3.822.053,3.09,2.25-3.728.846,3.49,1.559-3.47,1.603,3.738.799-3.061,2.289,3.822.004-2.518,2.876,3.74-.791-1.865,3.336,3.494-1.551-1.131,3.651,3.095-2.243-.347,3.807,2.561-2.838.452,3.796,1.915-3.308,1.231,3.619,1.185-3.634,1.957,3.284.404-3.801,2.597,2.805-.395-3.802,3.123,2.204-1.177-3.637,3.513,1.506-1.908-3.312,3.75.743-2.555-2.844,3.822-.053-3.09-2.25Zm-.673-.765c-.865,5.882-6.334,9.948-12.216,9.083-5.882-.865-9.948-6.334-9.083-12.216.865-5.882,6.334-9.948,12.216-9.084,5.882.865,9.948,6.334,9.083,12.216Z" style="fill:#88cbdf;"></path><path d="m7.102,8.576l4.002,3.659c.77-.842,1.629-1.601,2.558-2.267l-3.153-4.411c-1.238.887-2.381,1.897-3.407,3.019Zm1.972,6.409l-4.675-2.747c-.766,1.301-1.401,2.687-1.887,4.143l5.145,1.715c.364-1.094.842-2.134,1.417-3.111ZM14.467,3.309l2.168,4.971c1.036-.452,2.125-.802,3.259-1.033l-1.087-5.313c-1.509.307-2.961.773-4.34,1.376Zm8.829,3.607c1.166.009,2.302.142,3.397.382l1.168-5.296c-1.458-.32-2.971-.497-4.524-.509l-.042,5.423Zm12.807-1.163c-1.217-.9-2.53-1.675-3.923-2.308l-2.244,4.937c1.046.476,2.032,1.058,2.946,1.734l3.22-4.362Zm1.29,9.449l4.716-2.675c-.754-1.327-1.64-2.569-2.647-3.703l-4.057,3.597c.756.852,1.421,1.785,1.987,2.781Zm-30.574,7.941c.004-.577.04-1.147.102-1.709l-5.389-.608c-.083.748-.13,1.506-.136,2.275-.006.769.029,1.528.101,2.277l5.397-.525c-.054-.562-.08-1.133-.076-1.71Zm32.628-1.459l5.397-.525c-.148-1.539-.46-3.031-.912-4.46l-5.17,1.636c.34,1.074.574,2.193.685,3.349Zm-9.74,16.573l2.167,4.971c1.402-.612,2.728-1.367,3.958-2.248l-3.153-4.411c-.924.662-1.919,1.228-2.972,1.688Zm5.531-3.955l4.002,3.659c1.024-1.119,1.929-2.347,2.703-3.662l-4.675-2.747c-.582.988-1.261,1.91-2.03,2.75Zm-27.658-6.1l-5.17,1.636c.463,1.463,1.077,2.859,1.823,4.171l4.716-2.675c-.56-.985-1.021-2.033-1.369-3.132Zm31.105.239l5.145,1.715c.474-1.422.809-2.909.98-4.446l-5.389-.608c-.129,1.154-.38,2.27-.736,3.339Zm-27.749,5.675l-4.057,3.597c1.009,1.137,2.136,2.165,3.36,3.07l3.22-4.362c-.919-.68-1.766-1.452-2.523-2.306Zm3.226,8.976c1.37.623,2.813,1.112,4.318,1.442l1.168-5.296c-1.13-.248-2.214-.615-3.243-1.083l-2.244,4.937Zm8.883-3.471l-.042,5.423c1.553.012,3.068-.142,4.531-.44l-1.087-5.313c-1.099.224-2.237.339-3.403.33Z" style="fill:#ee2a24;"></path><path d="m26.44,21.442c0-.597-1.75-1.558-3.212-1.558-.808,0-1.192.327-1.192.75,0,.577.865.808,2.211,1.135,1.692.404,4,1.385,4,4.116,0,2.462-2.115,4.078-4.981,4.078-2.981,0-4.597-1.75-5.443-1.75h-.077l2.058-3.116c-.019.538,1.866,1.731,3.5,1.731.866,0,1.308-.346,1.308-.788,0-.673-1.096-1-2.384-1.308-1.942-.461-3.827-1.423-3.827-3.962,0-2.52,2.211-4.039,4.827-4.039,2.789,0,4.25,1.5,5.173,1.5h.077l-2.038,3.212Z" style="fill:#ee2a24;"></path></g><g id="Layer_2"><path d="m123.145,35.662c.895,0,1.61.715,1.61,1.61,0,.883-.715,1.598-1.61,1.598-.883,0-1.598-.715-1.598-1.598,0-.895.715-1.61,1.598-1.61Z" style="fill:#ee2a24;"></path><path d="m131.678,37.283c0-2.433,1.908-4.102,4.126-4.102,1.741,0,2.481.811,2.874.811l-.644.954c-.012-.19-.871-.859-2.158-.859-1.765,0-3.16,1.3-3.16,3.196s1.395,3.196,3.16,3.196c1.288,0,2.147-.668,2.158-.858l.644.954c-.393,0-1.133.811-2.874.811-2.218,0-4.126-1.67-4.126-4.102Z" style="fill:#ee2a24;"></path><path d="m148.336,38.893h-3.673l-.549,1.324c-.239.574-.31.788-.31.931,0,.072.024.106.036.119h-1.407c.167-.084.286-.37.62-1.145l2.433-5.689c.286-.68.382-.906.382-1.038,0-.048-.012-.083-.024-.095h1.312c-.012.012-.024.047-.024.095,0,.131.096.358.382,1.038l2.433,5.689c.334.775.453,1.061.62,1.145h-1.407c.012-.012.036-.047.036-.119,0-.143-.072-.358-.31-.931l-.549-1.324Zm-.358-.87l-1.479-3.613-1.479,3.613h2.958Z" style="fill:#ee2a24;"></path><path d="m159.401,35.029c-.012-.25-1.133-.954-2.302-.954-1.014,0-1.598.525-1.598,1.181,0,.68.656,1.098,1.729,1.431,1.479.453,2.719,1.05,2.719,2.48,0,1.3-1.085,2.218-2.636,2.218-1.681,0-2.647-.966-3.053-.966l.62-.954c-.012.227,1.205,1.025,2.421,1.025.978,0,1.658-.536,1.658-1.275,0-.871-.919-1.264-2.135-1.646-1.359-.429-2.313-1.025-2.313-2.277,0-1.216,1.038-2.111,2.587-2.111,1.575,0,2.528.883,2.91.883l-.608.965Z" style="fill:#ee2a24;"></path><path d="m165.715,40.039c0,.703.012,1.157.12,1.228h-1.229c.107-.072.12-.525.12-1.228v-5.486c0-.692-.012-1.181-.12-1.252h1.229c-.107.072-.12.548-.12,1.252v5.486Z" style="fill:#ee2a24;"></path><path d="m177.781,40.039c0,.703.012,1.157.119,1.228h-1.228c.023-.012.047-.059.072-.143l-4.807-6.25v5.165c0,.703.012,1.157.12,1.228h-1.229c.107-.072.12-.525.12-1.228v-5.486c0-.692-.012-1.181-.12-1.252h1.229c-.036.023-.048.059-.072.131l4.806,6.213v-5.092c0-.692-.012-1.181-.119-1.252h1.228c-.107.072-.119.548-.119,1.252v5.486Z" style="fill:#ee2a24;"></path><path d="m182.258,37.283c0-2.361,1.789-4.102,4.031-4.102,2.267,0,4.067,1.741,4.067,4.102s-1.801,4.102-4.067,4.102c-2.242,0-4.031-1.741-4.031-4.102Zm7.061,0c0-1.848-1.372-3.219-3.041-3.219-1.645,0-2.982,1.371-2.982,3.219,0,1.825,1.324,3.22,2.982,3.22,1.682,0,3.041-1.395,3.041-3.22Z" style="fill:#ee2a24;"></path><path d="m199.476,35.029c-.012-.25-1.133-.954-2.302-.954-1.014,0-1.598.525-1.598,1.181,0,.68.656,1.098,1.729,1.431,1.479.453,2.719,1.05,2.719,2.48,0,1.3-1.085,2.218-2.636,2.218-1.681,0-2.647-.966-3.053-.966l.62-.954c-.012.227,1.205,1.025,2.421,1.025.978,0,1.658-.536,1.658-1.275,0-.871-.919-1.264-2.135-1.646-1.359-.429-2.313-1.025-2.313-2.277,0-1.216,1.038-2.111,2.587-2.111,1.575,0,2.528.883,2.91.883l-.608.965Z" style="fill:#ee2a24;"></path><path d="m208.64,35.662c.895,0,1.61.715,1.61,1.61,0,.883-.715,1.598-1.61,1.598-.883,0-1.598-.715-1.598-1.598,0-.895.715-1.61,1.598-1.61Z" style="fill:#ee2a24;"></path></g></svg>